<?xml version="1.0" encoding="UTF-8" standalone="no"?>
<!-- Created with Inkscape (http://www.inkscape.org/) -->

<svg
   version="1.1"
   id="svg1"
   width="2816"
   height="1536"
   viewBox="0 0 2816 1536"
   inkscape:version="1.4.2 (1:1.4.2+202505120738+ebf0e940d0)"
   xmlns:inkscape="http://www.inkscape.org/namespaces/inkscape"
   xmlns:sodipodi="http://sodipodi.sourceforge.net/DTD/sodipodi-0.dtd"
   xmlns="http://www.w3.org/2000/svg"
   xmlns:svg="http://www.w3.org/2000/svg">
  <defs
     id="defs1" />
  <sodipodi:namedview
     id="namedview1"
     pagecolor="#ffffff"
     bordercolor="#666666"
     borderopacity="1.0"
     inkscape:showpageshadow="2"
     inkscape:pageopacity="0.0"
     inkscape:pagecheckerboard="0"
     inkscape:deskcolor="#d1d1d1"
     inkscape:zoom="0.18288352"
     inkscape:cx="929.55339"
     inkscape:cy="811.99223"
     inkscape:window-width="1920"
     inkscape:window-height="1010"
     inkscape:window-x="0"
     inkscape:window-y="37"
     inkscape:window-maximized="1"
     inkscape:current-layer="g1" />
  <g
     inkscape:groupmode="layer"
     inkscape:label="Image"
     id="g1">
    <g
       id="g2">
      <rect
         style="color:#000000;overflow:visible;stroke-width:25;stroke-linecap:round;stroke-linejoin:round;fill-opacity:1;stroke:#1f77b2;fill:none;stroke-dasharray:none"
         id="rect1"
         width="1099.0602"
         height="1030.7107"
         x="112.0932"
         y="251.52621" />
      <rect
         style="color:#000000;overflow:visible;fill:none;fill-opacity:1;stroke:#1f77b2;stroke-width:25;stroke-linecap:round;stroke-linejoin:round;stroke-dasharray:none"
         id="rect2"
         width="1099.0602"
         height="1030.7107"
         x="1599.3787"
         y="251.52621" />
    </g>
    <path
       style="font-size:1036.17px;line-height:100%;font-family:'Bitstream Vera Serif';-inkscape-font-specification:'Bitstream Vera Serif';text-align:center;letter-spacing:0px;word-spacing:0px;text-anchor:middle;fill:#1f77b2;stroke-width:24.2849;stroke-linecap:round;stroke-linejoin:round"
       d="M 1982.4536,870.85279 H 2259.71 L 2121.0818,511.63368 Z m -213.5077,273.71481 v -53.6299 h 66.2785 l 269.1613,-701.74208 h 84.9983 l 269.6673,701.74208 h 74.3736 v 53.6299 h -274.7267 v -53.6299 h 83.9864 L 2279.4418,924.98862 H 1961.71 l -63.2428,165.94908 h 82.9745 v 53.6299 z"
       id="text2"
       aria-label="A" />
    <path
       d="m 1592.1071,394.69627 -16.8888,33.5657 -24.0007,-6.31245 c -353.6654,-90.08054 -610.74942,283.32076 -443.8363,567.17297 145.0757,247.11751 505.2098,240.91501 636.1351,-6.2956 12.0562,-22.6036 13.1265,-25.2961 10.6904,-27.84725 -3.4683,-3.73698 -7.0322,-1.10202 -14.2558,10.53965 -178.8013,288.34461 -610.9068,186.51571 -615.5626,-146.97694 -2.5917,-209.83332 194.7182,-345.01946 378.81,-298.05623 l 24.4623,6.30604 -14.9658,32.43093 c -12.4597,26.76404 -14.6837,32.79634 -12.4528,33.8731 2.6026,1.25621 76.6738,-3.56319 183.3795,-11.88505 62.1606,-4.83784 69.167,-5.58194 70.1541,-7.62689 1.1665,-2.41678 -9.8798,-19.89699 -50.9807,-80.53576 -56.7503,-83.77897 -88.4974,-129.12977 -91.4721,-130.56552 -2.0448,-0.98702 -5.7431,5.2505 -19.2158,32.2133 z"
       id="path4"
       style="fill:#1f77b2;fill-opacity:1;stroke-width:0.206428"
       sodipodi:nodetypes="scccccccccccscscs" />
    <text
       xml:space="preserve"
       style="color:#000000;font-size:1066.67px;line-height:100%;font-family:'DejaVu Sans';-inkscape-font-specification:'DejaVu Sans, Normal';text-align:center;text-decoration:none;text-decoration-line:none;text-decoration-color:#000000;letter-spacing:0px;word-spacing:0px;writing-mode:lr-tb;direction:ltr;text-anchor:middle;overflow:visible;fill:#1f77b2;fill-opacity:1;stroke:none;stroke-width:25;stroke-linecap:round;stroke-linejoin:round;stroke-dasharray:none"
       x="319.87573"
       y="896.74561"
       id="text3"><tspan
         sodipodi:role="line"
         id="tspan3"
         x="319.87573"
         y="896.74561" /></text>
    <path
       style="font-size:1208.59px;line-height:100%;font-family:'Classic Console Neue';-inkscape-font-specification:'Classic Console Neue';text-align:center;letter-spacing:0px;word-spacing:0px;text-anchor:middle;fill:#1f77b2;stroke-width:28.3262;stroke-linecap:round;stroke-linejoin:round"
       d="M 926.00246,1144.5674 H 774.92872 V 842.41989 H 548.3181 V 1144.5674 H 397.24435 V 615.80927 h 75.53688 V 540.2724 h 75.53687 v -75.53687 h 75.53687 v -75.53688 h 75.53688 v 75.53688 h 75.53687 v 75.53687 h 75.53687 v 75.53687 h 75.53687 z M 774.92872,766.88302 V 615.80927 H 699.39185 V 540.2724 h -75.53688 v 75.53687 H 548.3181 v 151.07375 z"
       id="text1"
       aria-label="A" />
  </g>
</svg>
